<svg width="512" height="512" viewBox="0 0 512 512" fill="none" xmlns="http://www.w3.org/2000/svg">
<g clip-path="url(#clip0_203_8)">
<path d="M157.2 299.8H33.6V418H27.6V94H157.2C176 94 191.2 96.2 202.8 100.6C214.8 104.6 224 110.2 230.4 117.4C236.8 124.6 241.2 133.2 243.6 143.2C246 153.2 247.2 164 247.2 175.6V220C247.2 231.6 246 242.4 243.6 252.4C241.2 262 236.8 270.4 230.4 277.6C224 284.4 214.8 289.8 202.8 293.8C191.2 297.8 176 299.8 157.2 299.8ZM33.6 293.8H157.2C174.8 293.8 189 292 199.8 288.4C211 284.8 219.6 279.8 225.6 273.4C231.6 266.6 235.6 258.8 237.6 250C240 240.8 241.2 230.8 241.2 220V175.6C241.2 164.8 240 154.8 237.6 145.6C235.6 136.4 231.6 128.4 225.6 121.6C219.6 114.8 211 109.6 199.8 106C189 102 174.8 100 157.2 100H33.6V293.8ZM134.784 418V94H140.784V412H349.584V293.8H355.584V418H134.784ZM388.172 100H257.372V273.4H388.172C412.972 273.4 429.572 267.4 437.972 255.4C446.372 243.4 450.572 226.4 450.572 204.4V162.4C450.572 144 445.372 129 434.972 117.4C424.972 105.8 409.372 100 388.172 100ZM257.372 418H251.372V94H388.172C411.372 94 428.572 100.6 439.772 113.8C450.972 126.6 456.572 142.8 456.572 162.4V203.8C456.572 222.2 454.172 237.4 449.372 249.4C444.572 261 434.972 269 420.572 273.4H427.172C451.572 273.4 469.772 279 481.772 290.2C493.772 301 499.772 316.8 499.772 337.6V418H493.772V337.6C493.772 318 488.372 303.4 477.572 293.8C466.772 283.8 449.972 278.8 427.172 278.8H257.372V418Z" fill="white"/>
<path d="M33.6 299.8V297.8H31.6V299.8H33.6ZM33.6 418V420H35.6V418H33.6ZM27.6 418H25.6V420H27.6V418ZM27.6 94V92H25.6V94H27.6ZM202.8 100.6L202.091 102.47L202.129 102.484L202.168 102.497L202.8 100.6ZM230.4 117.4L231.895 116.071L231.895 116.071L230.4 117.4ZM243.6 143.2L241.655 143.667L241.655 143.667L243.6 143.2ZM243.6 252.4L245.54 252.885L245.543 252.876L245.545 252.867L243.6 252.4ZM230.4 277.6L231.856 278.971L231.876 278.95L231.895 278.929L230.4 277.6ZM202.8 293.8L202.168 291.903L202.158 291.906L202.148 291.909L202.8 293.8ZM33.6 293.8H31.6V295.8H33.6V293.8ZM199.8 288.4L199.188 286.496L199.178 286.499L199.168 286.503L199.8 288.4ZM225.6 273.4L227.059 274.768L227.08 274.746L227.1 274.723L225.6 273.4ZM237.6 250L235.665 249.495L235.657 249.526L235.65 249.557L237.6 250ZM237.6 145.6L235.646 146.025L235.654 146.065L235.665 146.105L237.6 145.6ZM225.6 121.6L227.1 120.277L227.1 120.277L225.6 121.6ZM199.8 106L199.105 107.875L199.146 107.891L199.188 107.904L199.8 106ZM33.6 100V98H31.6V100H33.6ZM157.2 297.8H33.6V301.8H157.2V297.8ZM31.6 299.8V418H35.6V299.8H31.6ZM33.6 416H27.6V420H33.6V416ZM29.6 418V94H25.6V418H29.6ZM27.6 96H157.2V92H27.6V96ZM157.2 96C175.87 96 190.803 98.1883 202.091 102.47L203.509 98.73C191.597 94.2116 176.13 92 157.2 92V96ZM202.168 102.497C213.936 106.42 222.8 111.86 228.905 118.729L231.895 116.071C225.2 108.54 215.664 102.78 203.432 98.7026L202.168 102.497ZM228.905 118.729C235.072 125.666 239.327 133.964 241.655 143.667L245.545 142.733C243.073 132.436 238.528 123.534 231.895 116.071L228.905 118.729ZM241.655 143.667C244.014 153.496 245.2 164.138 245.2 175.6H249.2C249.2 163.862 247.986 152.904 245.545 142.733L241.655 143.667ZM245.2 175.6V220H249.2V175.6H245.2ZM245.2 220C245.2 231.462 244.014 242.104 241.655 251.933L245.545 252.867C247.986 242.696 249.2 231.738 249.2 220H245.2ZM241.66 251.915C239.336 261.211 235.085 269.319 228.905 276.271L231.895 278.929C238.515 271.481 243.064 262.789 245.54 252.885L241.66 251.915ZM228.944 276.229C222.837 282.718 213.96 287.972 202.168 291.903L203.432 295.697C215.64 291.628 225.163 286.082 231.856 278.971L228.944 276.229ZM202.148 291.909C190.838 295.809 175.883 297.8 157.2 297.8V301.8C176.117 301.8 191.562 299.791 203.452 295.691L202.148 291.909ZM33.6 295.8H157.2V291.8H33.6V295.8ZM157.2 295.8C174.911 295.8 189.349 293.992 200.432 290.297L199.168 286.503C188.651 290.008 174.689 291.8 157.2 291.8V295.8ZM200.412 290.304C211.829 286.634 220.761 281.486 227.059 274.768L224.141 272.032C218.439 278.114 210.171 282.966 199.188 286.496L200.412 290.304ZM227.1 274.723C233.32 267.674 237.476 259.571 239.55 250.443L235.65 249.557C233.724 258.029 229.88 265.526 224.1 272.077L227.1 274.723ZM239.535 250.505C241.984 241.119 243.2 230.948 243.2 220H239.2C239.2 230.652 238.016 240.481 235.665 249.495L239.535 250.505ZM243.2 220V175.6H239.2V220H243.2ZM243.2 175.6C243.2 164.652 241.984 154.481 239.535 145.095L235.665 146.105C238.016 155.119 239.2 164.948 239.2 175.6H243.2ZM239.554 145.175C237.485 135.655 233.334 127.342 227.1 120.277L224.1 122.923C229.866 129.457 233.715 137.145 235.646 146.025L239.554 145.175ZM227.1 120.277C220.801 113.138 211.855 107.774 200.412 104.096L199.188 107.904C210.145 111.426 218.399 116.462 224.1 122.923L227.1 120.277ZM200.495 104.124C189.387 100.011 174.925 98 157.2 98V102C174.675 102 188.613 103.989 199.105 107.875L200.495 104.124ZM157.2 98H33.6V102H157.2V98ZM31.6 100V293.8H35.6V100H31.6ZM134.784 418H132.784V420H134.784V418ZM134.784 94V92H132.784V94H134.784ZM140.784 94H142.784V92H140.784V94ZM140.784 412H138.784V414H140.784V412ZM349.584 412V414H351.584V412H349.584ZM349.584 293.8V291.8H347.584V293.8H349.584ZM355.584 293.8H357.584V291.8H355.584V293.8ZM355.584 418V420H357.584V418H355.584ZM136.784 418V94H132.784V418H136.784ZM134.784 96H140.784V92H134.784V96ZM138.784 94V412H142.784V94H138.784ZM140.784 414H349.584V410H140.784V414ZM351.584 412V293.8H347.584V412H351.584ZM349.584 295.8H355.584V291.8H349.584V295.8ZM353.584 293.8V418H357.584V293.8H353.584ZM355.584 416H134.784V420H355.584V416ZM257.372 100V98H255.372V100H257.372ZM257.372 273.4H255.372V275.4H257.372V273.4ZM437.972 255.4L439.61 256.547L439.61 256.547L437.972 255.4ZM434.972 117.4L433.457 118.706L433.47 118.721L433.483 118.735L434.972 117.4ZM257.372 418V420H259.372V418H257.372ZM251.372 418H249.372V420H251.372V418ZM251.372 94V92H249.372V94H251.372ZM439.772 113.8L438.247 115.094L438.257 115.106L438.267 115.117L439.772 113.8ZM449.372 249.4L451.22 250.165L451.224 250.154L451.229 250.143L449.372 249.4ZM420.572 273.4L419.987 271.487L420.572 275.4V273.4ZM481.772 290.2L480.407 291.662L480.421 291.674L480.434 291.687L481.772 290.2ZM499.772 418V420H501.772V418H499.772ZM493.772 418H491.772V420H493.772V418ZM477.572 293.8L476.213 295.268L476.228 295.281L476.243 295.295L477.572 293.8ZM257.372 278.8V276.8H255.372V278.8H257.372ZM388.172 98H257.372V102H388.172V98ZM255.372 100V273.4H259.372V100H255.372ZM257.372 275.4H388.172V271.4H257.372V275.4ZM388.172 275.4C413.174 275.4 430.636 269.367 439.61 256.547L436.333 254.253C428.507 265.433 412.77 271.4 388.172 271.4V275.4ZM439.61 256.547C448.337 244.081 452.572 226.616 452.572 204.4H448.572C448.572 226.184 444.407 242.719 436.333 254.253L439.61 256.547ZM452.572 204.4V162.4H448.572V204.4H452.572ZM452.572 162.4C452.572 143.602 447.248 128.096 436.461 116.065L433.483 118.735C443.496 129.903 448.572 144.398 448.572 162.4H452.572ZM436.487 116.094C425.977 103.903 409.72 98 388.172 98V102C409.023 102 423.967 107.697 433.457 118.706L436.487 116.094ZM257.372 416H251.372V420H257.372V416ZM253.372 418V94H249.372V418H253.372ZM251.372 96H388.172V92H251.372V96ZM388.172 96C410.996 96 427.545 102.481 438.247 115.094L441.297 112.506C429.599 98.7186 411.748 92 388.172 92V96ZM438.267 115.117C449.1 127.497 454.572 143.206 454.572 162.4H458.572C458.572 142.394 452.844 125.703 441.277 112.483L438.267 115.117ZM454.572 162.4V203.8H458.572V162.4H454.572ZM454.572 203.8C454.572 222.045 452.189 236.971 447.515 248.657L451.229 250.143C456.154 237.829 458.572 222.355 458.572 203.8H454.572ZM447.524 248.635C442.998 259.572 433.942 267.223 419.987 271.487L421.156 275.313C436.002 270.777 446.145 262.428 451.22 250.165L447.524 248.635ZM420.572 275.4H427.172V271.4H420.572V275.4ZM427.172 275.4C451.307 275.4 468.923 280.943 480.407 291.662L483.137 288.738C470.621 277.057 451.837 271.4 427.172 271.4V275.4ZM480.434 291.687C491.899 302.005 497.772 317.193 497.772 337.6H501.772C501.772 316.407 495.645 299.995 483.11 288.713L480.434 291.687ZM497.772 337.6V418H501.772V337.6H497.772ZM499.772 416H493.772V420H499.772V416ZM495.772 418V337.6H491.772V418H495.772ZM495.772 337.6C495.772 317.642 490.264 302.406 478.901 292.305L476.243 295.295C486.479 304.394 491.772 318.358 491.772 337.6H495.772ZM478.931 292.332C467.603 281.844 450.209 276.8 427.172 276.8V280.8C449.735 280.8 465.941 285.756 476.213 295.268L478.931 292.332ZM427.172 276.8H257.372V280.8H427.172V276.8ZM255.372 278.8V418H259.372V278.8H255.372Z" fill="white"/>
</g>
<defs>
<clipPath id="clip0_203_8">
<rect width="512" height="512" fill="white"/>
</clipPath>
</defs>
</svg>
